<?xml version="1.0" encoding="UTF-8" standalone="no"?>
<!-- Created with Inkscape (http://www.inkscape.org/) -->

<svg
   version="1.1"
   id="svg1"
   width="55.065842mm"
   height="56.600822mm"
   viewBox="0 0 208.12286 213.92437"
   sodipodi:docname="bbb.svg"
   inkscape:version="1.3 (0e150ed, 2023-07-21)"
   xmlns:inkscape="http://www.inkscape.org/namespaces/inkscape"
   xmlns:sodipodi="http://sodipodi.sourceforge.net/DTD/sodipodi-0.dtd"
   xmlns="http://www.w3.org/2000/svg"
   xmlns:svg="http://www.w3.org/2000/svg">
  <defs
     id="defs1" />
  <sodipodi:namedview
     id="namedview1"
     pagecolor="#ffffff"
     bordercolor="#666666"
     borderopacity="1.0"
     inkscape:showpageshadow="2"
     inkscape:pageopacity="0.0"
     inkscape:pagecheckerboard="0"
     inkscape:deskcolor="#d1d1d1"
     inkscape:document-units="mm"
     inkscape:zoom="4"
     inkscape:cx="113.125"
     inkscape:cy="110.625"
     inkscape:window-width="1920"
     inkscape:window-height="1001"
     inkscape:window-x="0"
     inkscape:window-y="25"
     inkscape:window-maximized="1"
     inkscape:current-layer="g1" />
  <g
     inkscape:groupmode="layer"
     inkscape:label="Image"
     id="g1"
     transform="translate(-72.559792,-26.783857)">
    <g
       id="g17">
      <path
         id="rect1"
         style="fill-opacity:0.00308952;stroke:#ff0000;stroke-width:0.11338583;stroke-dasharray:none"
         d="m 114.78816,40.298935 c 9.96581,-4.20336 31.05921,0.310816 40.93893,10.148643 -3.20674,-5.468788 -1.92067,-13.250029 0.14008,-21.429997 l 13.76788,-1.093724 2.11657,6.102202 6.52716,-6.737203 22.64775,2.72417 -1.91385,7.223533 9.24306,-3.545845 8.05797,6.938237 c 1.6716,0.124398 9.09722,-3.033834 22.51719,-0.330016 -10.06088,8.41599 -7.59644,15.512756 -10.62094,20.880039 4.58755,15.553292 12.22454,20.52786 18.56266,27.201539 -3.3651,1.090086 -9.88576,0.929954 -9.00504,3.702221 l 12.95648,8.278496 c -8.85906,6.99016 -19.30986,13.46612 -18.42978,14.26054 -3.07583,2.74596 1.80126,4.40608 2.58566,6.8974 5.51911,12.92287 1.83046,21.65934 -2.76958,29.65097 28.97602,-6.92397 37.77499,23.83445 9.21983,29.32736 -0.40388,5.38274 -0.51528,9.82077 0.41496,10.89437 10.12117,-3.68131 20.41514,-10.88623 30.06624,-4.98184 20.94136,15.08042 -3.45579,31.53812 -7.17535,36.4278 -10.16854,4.71485 -21.94197,6.52336 -33.43006,-3.43486 -48.49281,32.16672 -79.72872,22.49576 -109.75873,1.73555 -14.28999,9.79502 -24.898774,5.6517 -35.507875,1.50956 -20.412118,-26.05286 -11.429671,-28.55966 -7.613083,-35.2045 8.591988,-6.76233 19.317175,-3.07603 31.952268,2.81785 l 0.70297,-8.92635 c -25.165243,-7.5802 -16.233852,-41.28833 9.07353,-31.1071 -8.08293,-21.98551 0.11128,-38.84934 7.07909,-38.22598 4.0171,-7.98379 5.84369,-5.67344 5.53798,-12.011108 -0.42682,-8.848503 0.047,-21.302526 3.56703,-30.904247 -9.43638,0.505447 -11.35103,-7.876702 -13.60697,-15.855589 -1.45057,-8.825002 -4.66086,-10.825955 -7.84403,-12.932121 z"
         sodipodi:nodetypes="ccccccccccccccccccccccccccccccsccc" />
      <ellipse
         style="fill:#000000;fill-opacity:0.00308952;stroke:#ff0000;stroke-width:0.11338583;stroke-dasharray:none"
         id="path4"
         cx="193.63994"
         cy="89.506996"
         rx="8.0072594"
         ry="6.8341174" />
      <path
         style="fill:#0000ff;fill-opacity:0.00308952;stroke:#ff0000;stroke-width:0.113386;stroke-dasharray:none;stroke-opacity:1"
         d="m 155.81938,50.411801 c 2.01642,22.437597 14.0539,22.966343 24.20643,25.644095 6.17793,-1.941784 12.46117,-3.720013 14.30212,-12.398364 -3.58168,1.736014 -7.3152,2.657064 -11.76029,-0.241245 -7.33019,-5.901928 -1.31744,-7.170194 1.19201,-9.655067 6.18476,-4.892361 12.6099,-0.140209 18.99912,3.170457 15.72259,14.331709 14.82204,29.153605 15.62924,43.925143 -0.10362,4.82887 3.02253,9.31381 8.97949,14.14268 -30.85238,-15.095674 -64.24252,-22.450053 -99.9762,-3.08619"
         id="path7"
         sodipodi:nodetypes="ccccccccc" />
      <ellipse
         style="fill:#000000;fill-opacity:0.00308952;stroke:#ff0000;stroke-width:0.11338583;stroke-dasharray:none"
         id="path4-3"
         cx="157.77251"
         cy="89.759087"
         rx="8.0072594"
         ry="6.8341174" />
      <ellipse
         style="fill:#000000;fill-opacity:0.00308952;stroke:#ff0000;stroke-width:0.11338583;stroke-dasharray:none"
         id="path4-3-1"
         cx="160.29092"
         cy="87.839691"
         rx="2.3183875"
         ry="2.4074609" />
      <ellipse
         style="fill:#000000;fill-opacity:0.00308952;stroke:#ff0000;stroke-width:0.11338583;stroke-dasharray:none"
         id="path4-3-1-6"
         cx="195.27969"
         cy="87.56076"
         rx="2.3183875"
         ry="2.4074609" />
      <ellipse
         style="fill:#000000;fill-opacity:0.00308952;stroke:#ff0000;stroke-width:0.11338583;stroke-dasharray:none"
         id="path5"
         cx="116.99548"
         cy="143.0336"
         rx="10.809209"
         ry="5.425137"
         transform="rotate(-7.7143501)" />
      <ellipse
         style="fill:#000000;fill-opacity:0.00308952;stroke:#ff0000;stroke-width:0.11338583;stroke-dasharray:none"
         id="path5-5"
         cx="-233.29715"
         cy="95.41806"
         rx="10.809209"
         ry="5.425137"
         transform="matrix(-0.99094961,-0.13423438,-0.13423438,0.99094961,0,0)" />
      <path
         style="fill:#0000ff;fill-opacity:0.00308952;stroke:#0000ff;stroke-width:0.11338583;stroke-opacity:1;stroke-dasharray:none"
         d="m 176.19265,171.23324 c 9.39526,-8.75344 15.18301,-26.56308 54.60253,-18.22507 15.6949,7.75048 15.46694,16.34978 10.45756,28.23755 -19.97715,27.08584 -44.32764,35.86275 -65.46603,49.46809 -22.80091,-16.25576 -56.96708,-29.71056 -63.8318,-49.37406 -9.53433,-13.75713 -0.60228,-25.81106 9.93854,-29.06803 28.61908,-5.83317 42.06535,3.47841 54.2992,18.96152 z"
         id="path6"
         sodipodi:nodetypes="ccccccc" />
      <path
         style="fill:#0000ff;fill-opacity:0.00308952;stroke:#ff0000;stroke-width:0.11338583;stroke-opacity:1;stroke-dasharray:none"
         d="m 232.33317,94.873778 c 2.03995,0.251712 4.57071,1.296584 8.69298,4.913462 l -3.57161,0.96393 z"
         id="path8"
         sodipodi:nodetypes="cccc" />
      <path
         style="fill:#0000ff;fill-opacity:0.00308952;stroke:#ff0000;stroke-width:0.11338583;stroke-opacity:1;stroke-dasharray:none"
         d="m 227.8756,77.458813 c 2.20501,1.649486 4.26352,2.987771 8.45624,8.859432 l -3.00294,0.09168 c -3.05167,-1.471161 -4.21911,-5.252044 -5.4533,-8.951112 z"
         id="path9"
         sodipodi:nodetypes="cccc" />
      <path
         style="fill:#0000ff;fill-opacity:0.00308952;stroke:#ff0000;stroke-width:0.11338583;stroke-opacity:1;stroke-dasharray:none"
         d="m 181.82497,32.301388 11.23663,0.926502 -0.99661,2.538586 z"
         id="path10" />
      <path
         style="fill:#0000ff;fill-opacity:0.00308952;stroke:#ff0000;stroke-width:0.11338583;stroke-opacity:1;stroke-dasharray:none"
         d="m 160.65607,33.426571 c 2.98251,-2.713287 3.65707,0.347272 3.65707,0.347272 z"
         id="path11" />
      <path
         style="fill:#0000ff;fill-opacity:0.00308952;stroke:#ff0000;stroke-width:0.11338583;stroke-opacity:1;stroke-dasharray:none"
         d="m 158.76217,107.59569 c 11.06256,-0.98906 22.47847,-1.21143 34.70018,0.31457 -20.94776,-8.038542 -34.28239,-0.61051 -34.70018,-0.31457 z"
         id="path12"
         sodipodi:nodetypes="ccc" />
      <path
         style="fill:#0000ff;fill-opacity:0.00308952;stroke:#ff0000;stroke-width:0.11338583;stroke-opacity:1;stroke-dasharray:none"
         d="m 110.35106,191.53387 c 0.11382,12.80857 5.14357,21.24061 10.95077,28.98051"
         id="path13"
         sodipodi:nodetypes="cc" />
      <path
         style="fill:#0000ff;fill-opacity:0.00308952;stroke:#ff0000;stroke-width:0.11338583;stroke-opacity:1;stroke-dasharray:none"
         d="m 241.57109,190.70383 c -1.0086,15.07664 -6.04328,21.93592 -10.51266,28.18469"
         id="path14"
         sodipodi:nodetypes="cc" />
      <g
         id="g16">
        <path
           style="fill:#0000ff;fill-opacity:0.00308952;stroke:#ff0000;stroke-width:0.113386;stroke-dasharray:none;stroke-opacity:1"
           d="m 215.93439,41.043062 c -9.88625,3.548255 -14.34154,6.715889 -17.5651,9.797199 6.04491,3.927413 12.0472,7.100783 18.49304,18.12226 4.45724,-0.476944 8.32788,-3.859104 10.85278,-7.391379"
           id="path15"
           sodipodi:nodetypes="cccc" />
      </g>
      <path
         style="fill:#0000ff;fill-opacity:0.00308952;stroke:#ff0000;stroke-width:0.113386;stroke-dasharray:none;stroke-opacity:1"
         d="m 136.30293,69.561749 c 4.32993,-7.493131 11.43579,-15.96161 19.37025,-18.626906"
         id="path16"
         sodipodi:nodetypes="cc" />
    </g>
  </g>
</svg>
