<?xml version="1.0" encoding="UTF-8" standalone="no"?>
<svg
   height="52.219234mm"
   version="1.2"
   width="52.910778mm"
   id="svg7"
   xmlns="http://www.w3.org/2000/svg"
   xmlns:svg="http://www.w3.org/2000/svg">
  <defs
     id="defs1" />
  <g
     id="g26">
    <g
       id="g24"
       transform="translate(99.977738,97.364037)">
      <path
         fill="#ff0000"
         id="circle1"
         d="M 100,0 A 100,100 0 0 1 1.0550281,99.994434 100,100 0 0 1 -99.977738,2.1099388" />
      <path
         fill="#ff7f00"
         id="circle2"
         d="M 87.142899,0 A 87.142899,87.142899 0 0 1 0.98444343,87.137338 87.142899,87.142899 0 0 1 -87.120656,1.9687612" />
      <path
         fill="#ffff00"
         id="circle3"
         d="M 74.285698,0 A 74.285698,74.285698 0 0 1 0.71647644,74.282243 74.285698,74.285698 0 0 1 -74.271877,1.4328862" />
      <path
         fill="#00ff00"
         id="circle4"
         d="M 61.4286,0 A 61.4286,61.4286 0 0 1 0.83417947,61.422936 61.4286,61.4286 0 0 1 -61.405945,1.6682051" />
      <path
         fill="#0000ff"
         id="circle5"
         d="M 48.5714,0 A 48.5714,48.5714 0 0 1 0.34932865,48.570143 48.5714,48.5714 0 0 1 -48.566375,0.69863924" />
      <path
         fill="#4b0082"
         id="circle6"
         d="M 35.714298,0 A 35.714298,35.714298 0 0 1 0.70070446,35.707424 35.714298,35.714298 0 0 1 -35.686803,1.4011392" />
      <path
         fill="#9400D3"
         id="circle7"
         style="fill:#ffffff;fill-opacity:1"
         d="M 22.8571,0 A 22.8571,22.8571 0 0 1 0.1945019,22.856272 22.8571,22.8571 0 0 1 -22.853789,0.38898971" />
    </g>
    <g
       id="g25"
       transform="matrix(0.99034197,0,0,1,0.74503567,97.364037)">
      <rect
         fill="#ff0000"
         height="100"
         width="12.978861"
         x="-0.73168564"
         y="-97.364037"
         id="rect1"
         style="stroke-width:0.953164" />
      <rect
         fill="#ff7f00"
         height="100"
         width="12.978861"
         x="12.247173"
         y="-97.364037"
         id="rect2"
         style="stroke-width:0.953164" />
      <rect
         fill="#ffff00"
         height="100"
         width="12.978861"
         x="25.226032"
         y="-97.364037"
         id="rect3"
         style="stroke-width:0.953164" />
      <rect
         fill="#00ff00"
         height="100"
         width="12.978861"
         x="38.204899"
         y="-97.364037"
         id="rect4"
         style="stroke-width:0.953164" />
      <rect
         fill="#0000ff"
         height="100"
         width="12.978861"
         x="51.183849"
         y="-97.364037"
         id="rect5"
         style="stroke-width:0.953164" />
      <rect
         fill="#4b0082"
         height="100"
         width="12.978861"
         x="64.162704"
         y="-97.364037"
         id="rect6"
         style="stroke-width:0.953164" />
    </g>
  </g>
</svg>
