<?xml version="1.0" encoding="UTF-8" standalone="no"?>
<svg
   xmlns:dc="http://purl.org/dc/elements/1.1/"
   xmlns:cc="http://creativecommons.org/ns#"
   xmlns:rdf="http://www.w3.org/1999/02/22-rdf-syntax-ns#"
   xmlns:svg="http://www.w3.org/2000/svg"
   xmlns="http://www.w3.org/2000/svg"
   xmlns:sodipodi="http://sodipodi.sourceforge.net/DTD/sodipodi-0.dtd"
   xmlns:inkscape="http://www.inkscape.org/namespaces/inkscape"
   version="1.1"
   width="628.88519"
   height="989.58948"
   viewBox="0 0 177.48538 279.28415"
   id="svg2"
   inkscape:version="0.48.5 r10040"
   sodipodi:docname="piece 4-12x_page1.svg">
  <metadata
     id="metadata18">
    <rdf:RDF>
      <cc:Work
         rdf:about="">
        <dc:format>image/svg+xml</dc:format>
        <dc:type
           rdf:resource="http://purl.org/dc/dcmitype/StillImage" />
      </cc:Work>
    </rdf:RDF>
  </metadata>
  <defs
     id="defs16" />
  <sodipodi:namedview
     pagecolor="#ffffff"
     bordercolor="#666666"
     borderopacity="1"
     objecttolerance="10"
     gridtolerance="10"
     guidetolerance="10"
     inkscape:pageopacity="0"
     inkscape:pageshadow="2"
     inkscape:window-width="1280"
     inkscape:window-height="946"
     id="namedview14"
     showgrid="false"
     inkscape:zoom="1.3593378"
     inkscape:cx="317.98029"
     inkscape:cy="969.01733"
     inkscape:window-x="0"
     inkscape:window-y="34"
     inkscape:window-maximized="1"
     inkscape:current-layer="svg2"
     fit-margin-top="0"
     fit-margin-left="0"
     fit-margin-right="0"
     fit-margin-bottom="0" />
  <style
     type="text/css"
     id="style4">
    path {
        fill: none;
        stroke-linecap: butt;
        stroke-linejoin: bevel;
        stroke-dasharray: none;
    }
    path.outer {
        stroke: #000000;
        stroke-dasharray: none;
        stroke-dashoffset: 0;
        stroke-width: 0.3;
        stroke-opacity: 1.0;
    }
    path.convex {
        stroke: #000000;
        stroke-dasharray: 0.50,1.00;
        stroke-dashoffset:0;
        stroke-width:0.2;
        stroke-opacity: 1.0
    }
    path.concave {
        stroke: #000000;
        stroke-dasharray: 1.00,0.50,0.20,0.50;
        stroke-dashoffset: 0;
        stroke-width: 0.2;
        stroke-opacity: 1.0
    }
    path.freestyle {
        stroke: #000000;
        stroke-dasharray: none;
        stroke-dashoffset: 0;
        stroke-width: 0.2;
        stroke-opacity: 1.0
    }
    path.outer_background {
        stroke: #ffffff;
        stroke-opacity: 1.0;
        stroke-width: 0.5
    }
    path.inner_background {
        stroke: #ffffff;
        stroke-opacity: 1.0;
        stroke-width: 0.2
    }
    path.sticker {
        fill: #e5e5e5;
        stroke: none;
        fill-opacity: 1.0;
    }
    path.arrow {
        fill: #000;
    }
    text {
        font-style: normal;
        fill: #000000;
        fill-opacity: 1.0;
        stroke: none;
    }
    text, tspan {
        text-anchor:middle;
    }
    </style>
  <g
     id="g6"
     transform="matrix(0,1,-1,0,293.36817,-4.85)">
    <path
       class="sticker"
       d="m 86.262767,134.46785 0.488326,2.77251 -13.969421,8.53501 z m -46.848587,152.66886 -5.397177,2.05032 -15.616282,-12.73579 0.922958,-5.69925 z M 19.593706,218.06453 18.729215,212.35612 34.475223,199.78106 39.8511,201.8866 z M 8.663721,244.35294 5.04593,239.8535 l 7.286766,-18.78754 5.705521,-0.88338 z m 0.423463,-82.62227 1.234591,-2.53005 2e-6,0 16.318246,1.30606 z m 87.835546,-0.86379 3.61779,4.49944 -7.286739,18.78754 -5.70552,0.88338 z m -31.610817,125.08862 -2.655942,5.12634 -20.130224,0.91815 -3.111567,-4.86328 z m -4.084836,-17.11476 6.129589,15.17952 -2.044753,1.93524 z m -28.422291,-9.39628 -12.542474,10.52029 -2.47234,-1.34662 z M 17.789972,268.61813 12.093806,267.67631 5,248.81505 8.663721,244.35294 z m 47.945384,-65.28491 2.024729,1.956 -6.284774,15.11598 z m 20.257387,-16.17793 0.864506,5.70842 -15.746012,12.57504 -5.375881,-2.10553 z m -7.046312,57.55786 16.330749,-1.13883 1.208633,2.54267 z m -60.908214,-24.53057 2.485945,-1.32119 -2e-6,0 12.434045,10.64826 z m 19.732953,-100.119 2.787799,0.39235 3.800414,15.92316 z m 34.857079,55.64659 13.881237,8.67766 -0.516743,2.76746 z m 23.857564,70.40682 4.054707,4.11008 -5.347368,19.4287 -5.586773,1.45644 z M 66.172277,118.0831 l 5.39717,-2.05031 15.616298,12.7358 -0.922978,5.69926 z m -22.061129,66.73152 -3.963433,15.88337 -2.791669,0.36375 z"
       id="path8"
       inkscape:connector-curvature="0"
       style="fill:#e5e5e5;fill-opacity:1;stroke:none" />
    <path
       class="convex"
       d="m 65.735356,203.33322 20.257387,-16.17793 m -59.35272,-26.64861 -17.552839,1.22399 m 78.461077,23.30657 9.374469,-24.17036 M 85.992743,187.15529 72.628249,175.71017 m -39.670044,53.79948 -0.153419,29.93481 m -6.164763,-98.93778 17.471125,24.30794 m 28.670524,-39.03925 -0.153423,29.9348 m -28.517101,9.10445 28.517101,-9.10445 m 16.97813,95.40204 6.879434,-24.99522 m 0,0 -17.539382,-1.40384 m -45.988226,-15.2035 -14.919988,-9.32707 m 0,0 -9.374496,24.17036 m 35.695662,-107.97385 28.422289,9.39628 m 0,0 13.481095,-11.30752 m -7.316336,110.2453 -17.719354,24.12759 M 32.958205,229.50965 61.475311,220.4052 m -52.81159,23.94774 9.126251,24.26519 M 61.475311,220.4052 65.735356,203.33322 M 26.640023,160.50668 44.359383,136.37909 M 17.789972,268.61813 32.804786,259.44446 M 86.262767,134.46785 66.172277,118.0831 m -4.696966,102.3221 17.47112,24.30795 M 19.323679,270.75199 39.41418,287.13671 M 39.8511,201.8866 19.593706,218.06453 M 39.41418,287.13671 65.311913,285.9555 M 44.359383,136.37909 37.77117,120.06358 m -0.415124,80.99816 6.755102,-16.24712 M 65.311913,285.9555 61.227077,268.84074 m 0,0 -28.422291,-9.39628 m 7.046314,-57.55786 25.884256,1.44662"
       id="path10"
       inkscape:connector-curvature="0"
       style="fill:none;stroke:#000000;stroke-width:0.2;stroke-linecap:butt;stroke-linejoin:bevel;stroke-opacity:1;stroke-dasharray:0.5, 1;stroke-dashoffset:0" />
    <path
       class="outer"
       d="m 86.857249,192.86371 -15.746012,12.57504 -5.375881,-2.10553 2.024729,1.956 -6.284774,15.11598 6.755107,-16.24714 21.646,14.26669 6.622866,25.06441 -17.552853,1.22399 16.330749,-1.13883 1.208633,2.54267 4.054707,4.11008 -5.347368,19.4287 -5.586773,1.45644 -21.791093,14.04404 -6.588209,-16.31551 6.129589,15.17952 -2.044753,1.93524 -2.655942,5.12634 -20.130224,0.91815 -3.111567,-4.86328 -5.397177,2.05032 -15.616282,-12.73579 0.922958,-5.69925 13.481107,-11.30753 -12.542474,10.52029 -2.47234,-1.34662 -5.696166,-0.94182 L 5,248.81505 8.663721,244.35294 5.04593,239.8535 l 7.286766,-18.78754 5.705521,-0.88338 2.485945,-1.32119 -2e-6,0 12.434045,10.64826 -13.364499,-11.44512 -0.864491,-5.70841 15.746008,-12.57506 5.375877,2.10554 4.260048,-17.07198 -3.963433,15.88337 -2.791669,0.36375 -21.646003,-14.26666 -6.622859,-25.06441 1.234591,-2.53005 2e-6,0 16.318246,1.30606 -17.539379,-1.40384 6.879435,-24.99521 21.791091,-14.04405 2.787799,0.39235 3.800414,15.92316 -4.084829,-17.11474 25.897723,-1.18125 5.39717,-2.05031 15.616298,12.7358 -0.922978,5.69926 0.488326,2.77251 -13.969421,8.53501 15.014812,-9.17366 9.126246,24.26517 3.61779,4.49944 -7.286739,18.78754 -5.70552,0.88338 -14.920012,-9.32707 13.881237,8.67766 -0.516743,2.76746 z"
       id="path12"
       inkscape:connector-curvature="0"
       style="fill:none;stroke:#000000;stroke-width:0.30000001;stroke-linecap:butt;stroke-linejoin:bevel;stroke-opacity:1;stroke-dasharray:none;stroke-dashoffset:0" />
  </g>
  <g
     transform="matrix(0,-1,1,0,-114.66461,192.41233)"
     id="g3009">
    <path
       style="fill:#e5e5e5;fill-opacity:1;stroke:none"
       inkscape:connector-curvature="0"
       id="path3011"
       d="m 86.262767,134.46785 0.488326,2.77251 -13.969421,8.53501 z m -46.848587,152.66886 -5.397177,2.05032 -15.616282,-12.73579 0.922958,-5.69925 z M 19.593706,218.06453 18.729215,212.35612 34.475223,199.78106 39.8511,201.8866 z M 8.663721,244.35294 5.04593,239.8535 l 7.286766,-18.78754 5.705521,-0.88338 z m 0.423463,-82.62227 1.234591,-2.53005 2e-6,0 16.318246,1.30606 z m 87.835546,-0.86379 3.61779,4.49944 -7.286739,18.78754 -5.70552,0.88338 z m -31.610817,125.08862 -2.655942,5.12634 -20.130224,0.91815 -3.111567,-4.86328 z m -4.084836,-17.11476 6.129589,15.17952 -2.044753,1.93524 z m -28.422291,-9.39628 -12.542474,10.52029 -2.47234,-1.34662 z M 17.789972,268.61813 12.093806,267.67631 5,248.81505 8.663721,244.35294 z m 47.945384,-65.28491 2.024729,1.956 -6.284774,15.11598 z m 20.257387,-16.17793 0.864506,5.70842 -15.746012,12.57504 -5.375881,-2.10553 z m -7.046312,57.55786 16.330749,-1.13883 1.208633,2.54267 z m -60.908214,-24.53057 2.485945,-1.32119 -2e-6,0 12.434045,10.64826 z m 19.732953,-100.119 2.787799,0.39235 3.800414,15.92316 z m 34.857079,55.64659 13.881237,8.67766 -0.516743,2.76746 z m 23.857564,70.40682 4.054707,4.11008 -5.347368,19.4287 -5.586773,1.45644 z M 66.172277,118.0831 l 5.39717,-2.05031 15.616298,12.7358 -0.922978,5.69926 z m -22.061129,66.73152 -3.963433,15.88337 -2.791669,0.36375 z"
       class="sticker" />
    <path
       style="fill:none;stroke:#000000;stroke-width:0.2;stroke-linecap:butt;stroke-linejoin:bevel;stroke-opacity:1;stroke-dasharray:0.5, 1;stroke-dashoffset:0"
       inkscape:connector-curvature="0"
       id="path3013"
       d="m 65.735356,203.33322 20.257387,-16.17793 m -59.35272,-26.64861 -17.552839,1.22399 m 78.461077,23.30657 9.374469,-24.17036 M 85.992743,187.15529 72.628249,175.71017 m -39.670044,53.79948 -0.153419,29.93481 m -6.164763,-98.93778 17.471125,24.30794 m 28.670524,-39.03925 -0.153423,29.9348 m -28.517101,9.10445 28.517101,-9.10445 m 16.97813,95.40204 6.879434,-24.99522 m 0,0 -17.539382,-1.40384 m -45.988226,-15.2035 -14.919988,-9.32707 m 0,0 -9.374496,24.17036 m 35.695662,-107.97385 28.422289,9.39628 m 0,0 13.481095,-11.30752 m -7.316336,110.2453 -17.719354,24.12759 M 32.958205,229.50965 61.475311,220.4052 m -52.81159,23.94774 9.126251,24.26519 M 61.475311,220.4052 65.735356,203.33322 M 26.640023,160.50668 44.359383,136.37909 M 17.789972,268.61813 32.804786,259.44446 M 86.262767,134.46785 66.172277,118.0831 m -4.696966,102.3221 17.47112,24.30795 M 19.323679,270.75199 39.41418,287.13671 M 39.8511,201.8866 19.593706,218.06453 M 39.41418,287.13671 65.311913,285.9555 M 44.359383,136.37909 37.77117,120.06358 m -0.415124,80.99816 6.755102,-16.24712 M 65.311913,285.9555 61.227077,268.84074 m 0,0 -28.422291,-9.39628 m 7.046314,-57.55786 25.884256,1.44662"
       class="convex" />
    <path
       style="fill:none;stroke:#000000;stroke-width:0.30000001;stroke-linecap:butt;stroke-linejoin:bevel;stroke-opacity:1;stroke-dasharray:none;stroke-dashoffset:0"
       inkscape:connector-curvature="0"
       id="path3015"
       d="m 86.857249,192.86371 -15.746012,12.57504 -5.375881,-2.10553 2.024729,1.956 -6.284774,15.11598 6.755107,-16.24714 21.646,14.26669 6.622866,25.06441 -17.552853,1.22399 16.330749,-1.13883 1.208633,2.54267 4.054707,4.11008 -5.347368,19.4287 -5.586773,1.45644 -21.791093,14.04404 -6.588209,-16.31551 6.129589,15.17952 -2.044753,1.93524 -2.655942,5.12634 -20.130224,0.91815 -3.111567,-4.86328 -5.397177,2.05032 -15.616282,-12.73579 0.922958,-5.69925 13.481107,-11.30753 -12.542474,10.52029 -2.47234,-1.34662 -5.696166,-0.94182 L 5,248.81505 8.663721,244.35294 5.04593,239.8535 l 7.286766,-18.78754 5.705521,-0.88338 2.485945,-1.32119 -2e-6,0 12.434045,10.64826 -13.364499,-11.44512 -0.864491,-5.70841 15.746008,-12.57506 5.375877,2.10554 4.260048,-17.07198 -3.963433,15.88337 -2.791669,0.36375 -21.646003,-14.26666 -6.622859,-25.06441 1.234591,-2.53005 2e-6,0 16.318246,1.30606 -17.539379,-1.40384 6.879435,-24.99521 21.791091,-14.04405 2.787799,0.39235 3.800414,15.92316 -4.084829,-17.11474 25.897723,-1.18125 5.39717,-2.05031 15.616298,12.7358 -0.922978,5.69926 0.488326,2.77251 -13.969421,8.53501 15.014812,-9.17366 9.126246,24.26517 3.61779,4.49944 -7.286739,18.78754 -5.70552,0.88338 -14.920012,-9.32707 13.881237,8.67766 -0.516743,2.76746 z"
       class="outer" />
  </g>
  <g
     id="g3017"
     transform="matrix(0,1,-1,0,292.14999,178.59362)">
    <path
       class="sticker"
       d="m 86.262767,134.46785 0.488326,2.77251 -13.969421,8.53501 z m -46.848587,152.66886 -5.397177,2.05032 -15.616282,-12.73579 0.922958,-5.69925 z M 19.593706,218.06453 18.729215,212.35612 34.475223,199.78106 39.8511,201.8866 z M 8.663721,244.35294 5.04593,239.8535 l 7.286766,-18.78754 5.705521,-0.88338 z m 0.423463,-82.62227 1.234591,-2.53005 2e-6,0 16.318246,1.30606 z m 87.835546,-0.86379 3.61779,4.49944 -7.286739,18.78754 -5.70552,0.88338 z m -31.610817,125.08862 -2.655942,5.12634 -20.130224,0.91815 -3.111567,-4.86328 z m -4.084836,-17.11476 6.129589,15.17952 -2.044753,1.93524 z m -28.422291,-9.39628 -12.542474,10.52029 -2.47234,-1.34662 z M 17.789972,268.61813 12.093806,267.67631 5,248.81505 8.663721,244.35294 z m 47.945384,-65.28491 2.024729,1.956 -6.284774,15.11598 z m 20.257387,-16.17793 0.864506,5.70842 -15.746012,12.57504 -5.375881,-2.10553 z m -7.046312,57.55786 16.330749,-1.13883 1.208633,2.54267 z m -60.908214,-24.53057 2.485945,-1.32119 -2e-6,0 12.434045,10.64826 z m 19.732953,-100.119 2.787799,0.39235 3.800414,15.92316 z m 34.857079,55.64659 13.881237,8.67766 -0.516743,2.76746 z m 23.857564,70.40682 4.054707,4.11008 -5.347368,19.4287 -5.586773,1.45644 z M 66.172277,118.0831 l 5.39717,-2.05031 15.616298,12.7358 -0.922978,5.69926 z m -22.061129,66.73152 -3.963433,15.88337 -2.791669,0.36375 z"
       id="path3019"
       inkscape:connector-curvature="0"
       style="fill:#e5e5e5;fill-opacity:1;stroke:none" />
    <path
       class="convex"
       d="m 65.735356,203.33322 20.257387,-16.17793 m -59.35272,-26.64861 -17.552839,1.22399 m 78.461077,23.30657 9.374469,-24.17036 M 85.992743,187.15529 72.628249,175.71017 m -39.670044,53.79948 -0.153419,29.93481 m -6.164763,-98.93778 17.471125,24.30794 m 28.670524,-39.03925 -0.153423,29.9348 m -28.517101,9.10445 28.517101,-9.10445 m 16.97813,95.40204 6.879434,-24.99522 m 0,0 -17.539382,-1.40384 m -45.988226,-15.2035 -14.919988,-9.32707 m 0,0 -9.374496,24.17036 m 35.695662,-107.97385 28.422289,9.39628 m 0,0 13.481095,-11.30752 m -7.316336,110.2453 -17.719354,24.12759 M 32.958205,229.50965 61.475311,220.4052 m -52.81159,23.94774 9.126251,24.26519 M 61.475311,220.4052 65.735356,203.33322 M 26.640023,160.50668 44.359383,136.37909 M 17.789972,268.61813 32.804786,259.44446 M 86.262767,134.46785 66.172277,118.0831 m -4.696966,102.3221 17.47112,24.30795 M 19.323679,270.75199 39.41418,287.13671 M 39.8511,201.8866 19.593706,218.06453 M 39.41418,287.13671 65.311913,285.9555 M 44.359383,136.37909 37.77117,120.06358 m -0.415124,80.99816 6.755102,-16.24712 M 65.311913,285.9555 61.227077,268.84074 m 0,0 -28.422291,-9.39628 m 7.046314,-57.55786 25.884256,1.44662"
       id="path3021"
       inkscape:connector-curvature="0"
       style="fill:none;stroke:#000000;stroke-width:0.2;stroke-linecap:butt;stroke-linejoin:bevel;stroke-opacity:1;stroke-dasharray:0.5, 1;stroke-dashoffset:0" />
    <path
       class="outer"
       d="m 86.857249,192.86371 -15.746012,12.57504 -5.375881,-2.10553 2.024729,1.956 -6.284774,15.11598 6.755107,-16.24714 21.646,14.26669 6.622866,25.06441 -17.552853,1.22399 16.330749,-1.13883 1.208633,2.54267 4.054707,4.11008 -5.347368,19.4287 -5.586773,1.45644 -21.791093,14.04404 -6.588209,-16.31551 6.129589,15.17952 -2.044753,1.93524 -2.655942,5.12634 -20.130224,0.91815 -3.111567,-4.86328 -5.397177,2.05032 -15.616282,-12.73579 0.922958,-5.69925 13.481107,-11.30753 -12.542474,10.52029 -2.47234,-1.34662 -5.696166,-0.94182 L 5,248.81505 8.663721,244.35294 5.04593,239.8535 l 7.286766,-18.78754 5.705521,-0.88338 2.485945,-1.32119 -2e-6,0 12.434045,10.64826 -13.364499,-11.44512 -0.864491,-5.70841 15.746008,-12.57506 5.375877,2.10554 4.260048,-17.07198 -3.963433,15.88337 -2.791669,0.36375 -21.646003,-14.26666 -6.622859,-25.06441 1.234591,-2.53005 2e-6,0 16.318246,1.30606 -17.539379,-1.40384 6.879435,-24.99521 21.791091,-14.04405 2.787799,0.39235 3.800414,15.92316 -4.084829,-17.11474 25.897723,-1.18125 5.39717,-2.05031 15.616298,12.7358 -0.922978,5.69926 0.488326,2.77251 -13.969421,8.53501 15.014812,-9.17366 9.126246,24.26517 3.61779,4.49944 -7.286739,18.78754 -5.70552,0.88338 -14.920012,-9.32707 13.881237,8.67766 -0.516743,2.76746 z"
       id="path3023"
       inkscape:connector-curvature="0"
       style="fill:none;stroke:#000000;stroke-width:0.30000001;stroke-linecap:butt;stroke-linejoin:bevel;stroke-opacity:1;stroke-dasharray:none;stroke-dashoffset:0" />
  </g>
</svg>
