<?xml version="1.0" encoding="UTF-8" standalone="no"?>
<svg
   xmlns:dc="http://purl.org/dc/elements/1.1/"
   xmlns:cc="http://creativecommons.org/ns#"
   xmlns:rdf="http://www.w3.org/1999/02/22-rdf-syntax-ns#"
   xmlns:svg="http://www.w3.org/2000/svg"
   xmlns="http://www.w3.org/2000/svg"
   xmlns:sodipodi="http://sodipodi.sourceforge.net/DTD/sodipodi-0.dtd"
   xmlns:inkscape="http://www.inkscape.org/namespaces/inkscape"
   version="1.1"
   width="657.6189"
   height="915.25031"
   viewBox="0 0 185.59467 258.30398"
   id="svg2"
   inkscape:version="0.48.5 r10040"
   sodipodi:docname="piece 3-20x_page1.svg">
  <metadata
     id="metadata18">
    <rdf:RDF>
      <cc:Work
         rdf:about="">
        <dc:format>image/svg+xml</dc:format>
        <dc:type
           rdf:resource="http://purl.org/dc/dcmitype/StillImage" />
        <dc:title></dc:title>
      </cc:Work>
    </rdf:RDF>
  </metadata>
  <defs
     id="defs16" />
  <sodipodi:namedview
     pagecolor="#ffffff"
     bordercolor="#666666"
     borderopacity="1"
     objecttolerance="10"
     gridtolerance="10"
     guidetolerance="10"
     inkscape:pageopacity="0"
     inkscape:pageshadow="2"
     inkscape:window-width="1280"
     inkscape:window-height="946"
     id="namedview14"
     showgrid="false"
     inkscape:zoom="0.22425739"
     inkscape:cx="-913.56732"
     inkscape:cy="822.5458"
     inkscape:window-x="0"
     inkscape:window-y="34"
     inkscape:window-maximized="1"
     inkscape:current-layer="svg2"
     fit-margin-top="0"
     fit-margin-left="0"
     fit-margin-right="0"
     fit-margin-bottom="0" />
  <style
     type="text/css"
     id="style4">
    path {
        fill: none;
        stroke-linecap: butt;
        stroke-linejoin: bevel;
        stroke-dasharray: none;
    }
    path.outer {
        stroke: #000000;
        stroke-dasharray: none;
        stroke-dashoffset: 0;
        stroke-width: 0.3;
        stroke-opacity: 1.0;
    }
    path.convex {
        stroke: #000000;
        stroke-dasharray: 0.50,1.00;
        stroke-dashoffset:0;
        stroke-width:0.2;
        stroke-opacity: 1.0
    }
    path.concave {
        stroke: #000000;
        stroke-dasharray: 1.00,0.50,0.20,0.50;
        stroke-dashoffset: 0;
        stroke-width: 0.2;
        stroke-opacity: 1.0
    }
    path.freestyle {
        stroke: #000000;
        stroke-dasharray: none;
        stroke-dashoffset: 0;
        stroke-width: 0.2;
        stroke-opacity: 1.0
    }
    path.outer_background {
        stroke: #ffffff;
        stroke-opacity: 1.0;
        stroke-width: 0.5
    }
    path.inner_background {
        stroke: #ffffff;
        stroke-opacity: 1.0;
        stroke-width: 0.2
    }
    path.sticker {
        fill: #e5e5e5;
        stroke: none;
        fill-opacity: 1.0;
    }
    path.arrow {
        fill: #000;
    }
    text {
        font-style: normal;
        fill: #000000;
        fill-opacity: 1.0;
        stroke: none;
    }
    text, tspan {
        text-anchor:middle;
    }
    </style>
  <g
     id="g6"
     transform="matrix(-0.13717922,0.99054625,-0.99054625,-0.13717922,294.13338,157.64201)">
    <path
       class="sticker"
       d="m 106.87593,237.95665 5.77315,0.0642 5.79672,10.30323 -2.94219,4.96758 z M 93.380039,97.454931 l 5.592227,-1.435414 16.903814,17.264083 -1.55301,5.56071 z m -6.832876,27.637969 -10.006621,-10.47997 -3.76191,-8.65563 3.434963,-4.64052 z m -49.257379,49.42225 -4.439939,3.69058 -11.090127,-4.09489 -0.976151,-5.69037 z m -16.506217,-6.09468 -5.473597,-1.83659 -4.797019,-23.68069 4.327334,-3.822 z m 93.539503,-49.57616 4.16104,4.00238 -2.8373,11.47644 -5.54668,1.60238 z m -9.3163,73.05015 -1.21704,5.64378 -23.001068,7.39851 -4.279129,-3.87588 z m -77.333417,-64.85125 5.768616,-0.23739 10.784649,17.02231 -2.678708,5.11447 z m 12.178638,138.44355 -1.364254,-5.23448 21.632914,-14.75867 z m 47.215499,-10.80552 7.165946,-12.59415 7.211174,-6.08852 5.43132,1.95808 z m -3.725127,-81.25833 13.8487,-4.26343 9.424187,0.50616 2.61444,5.14763 z m -48.719425,25.38833 1.217042,-5.64377 21.491851,-6.91306 5.788349,3.39041 z m 6.924972,-49.86864 2.592817,-4.74739 25.869239,4.07237 z m -4.945468,112.5959 5.158112,2.59368 1.161769,20.11761 -4.825253,3.17022 z M 20.652425,285.12114 14.908374,284.53872 5,262.50213 8.376417,257.81885 z m 55.857108,-84.06027 0.876888,5.70653 -7.361829,5.90553 -13.737261,4.60985 z m -68.133116,56.75798 -2.524392,-5.19238 6.62311,-9.7925 5.758926,0.40999 z m 107.127193,-4.52717 2.9805,4.9447 -11.68426,21.14865 -5.77248,0.10884 z m -77.40654,34.12833 -3.515259,4.57998 -11.720633,-1.54455 -2.208753,-5.3343 z"
       id="path8"
       inkscape:connector-curvature="0"
       style="fill:#e5e5e5;fill-opacity:1;stroke:none" />
    <path
       class="convex"
       d="m 101.02737,279.49387 14.47624,-26.20219 M 76.509533,201.06087 63.12018,189.64482 m 0,0 -28.497242,9.16642 M 83.342363,173.42291 70.009966,148.26758 M 36.602442,261.5385 18.234061,243.24396 m -3.393776,-104.16277 5.943282,29.33928 m 66.283923,86.26077 -3.614598,25.67143 m -62.669325,-111.9322 16.506217,6.09468 m 78.213826,78.77653 -8.62768,-15.33503 m 2.35376,-63.14338 -25.887327,-1.39036 M 76.213595,101.31678 86.547163,125.0929 M 37.289784,174.51515 41.54791,148.9426 M 114.32307,118.84431 93.380039,97.454931 M 60.120651,245.49361 39.851991,265.48676 m -21.61793,-22.2428 -9.857644,14.57489 m 78.691073,-3.13761 -26.946839,-9.18763 m -39.468226,39.62753 17.444645,2.29887 m 18.190261,-70.13723 3.83332,28.21083 M 70.009966,148.26758 41.54791,148.9426 M 86.547163,125.0929 70.009966,148.26758 M 38.09707,287.42001 36.602442,261.5385 M 41.54791,148.9426 27.673353,127.04321 M 8.376417,257.81885 20.652425,285.12114 m 9.747573,-69.22871 25.887333,1.39035 M 110.10013,135.92551 86.547163,125.0929 m 23.552967,10.83261 4.22294,-17.0812 m -7.44714,119.11234 -19.80844,16.72459 m -10.557957,-53.62037 28.497237,-9.16641 m -48.719439,25.38832 20.222202,-16.22191 m 6.83283,-27.63796 -20.222183,16.22191"
       id="path10"
       inkscape:connector-curvature="0"
       style="fill:none;stroke:#000000;stroke-width:0.2;stroke-linecap:butt;stroke-linejoin:bevel;stroke-opacity:1;stroke-dasharray:0.5, 1;stroke-dashoffset:0" />
    <path
       class="outer"
       d="m 30.399998,215.89243 4.22294,-17.08119 1.217042,-5.64377 21.491851,-6.91306 5.788349,3.39041 -25.830396,-15.12967 -4.439939,3.69058 -11.090127,-4.09489 -0.976151,-5.69037 -5.473597,-1.83659 -4.797019,-23.68069 4.327334,-3.822 12.833068,-12.03798 5.768616,-0.23739 10.784649,17.02231 -2.678708,5.11447 2.592817,-4.74739 25.869239,4.07237 -28.123717,-4.42732 -0.844226,-25.91088 27.601976,-11.5865 17.903164,18.75002 -10.006621,-10.47997 -3.76191,-8.65563 3.434963,-4.64052 17.166444,-3.861849 5.592227,-1.435414 16.903814,17.264083 -1.55301,5.56071 4.16104,4.00238 -2.8373,11.47644 -5.54668,1.60238 -1.98069,29.8696 -24.777077,7.6278 13.8487,-4.26343 9.424187,0.50616 2.61444,5.14763 -4.22292,17.08119 -1.21704,5.64378 -23.001068,7.39851 -4.279129,-3.87588 0.876888,5.70653 -7.361829,5.90553 -13.737261,4.60985 24.577729,-8.2476 19.02318,23.11352 -12.82075,22.53254 7.165946,-12.59415 7.211174,-6.08852 5.43132,1.95808 5.77315,0.0642 5.79672,10.30323 -2.94219,4.96758 2.9805,4.9447 -11.68426,21.14865 -5.77248,0.10884 -17.574478,0.8588 -29.180794,6.67817 -14.420107,-21.54408 -1.364254,-5.23448 21.632914,-14.75867 -23.518209,16.04489 5.158112,2.59368 1.161769,20.11761 -4.825253,3.17022 -3.515259,4.57998 -11.720633,-1.54455 -2.208753,-5.3343 L 14.908374,284.5387 5,262.50213 l 3.376417,-4.68328 -2.524392,-5.19238 6.62311,-9.7925 5.758926,0.40999 z"
       id="path12"
       inkscape:connector-curvature="0"
       style="fill:none;stroke:#000000;stroke-width:0.30000001;stroke-linecap:butt;stroke-linejoin:bevel;stroke-opacity:1;stroke-dasharray:none;stroke-dashoffset:0" />
  </g>
  <g
     transform="matrix(-0.13717922,0.99054625,-0.99054625,-0.13717922,294.13338,31.207106)"
     id="g2990">
    <path
       style="fill:#e5e5e5;fill-opacity:1;stroke:none"
       inkscape:connector-curvature="0"
       id="path2992"
       d="m 106.87593,237.95665 5.77315,0.0642 5.79672,10.30323 -2.94219,4.96758 z M 93.380039,97.454931 l 5.592227,-1.435414 16.903814,17.264083 -1.55301,5.56071 z m -6.832876,27.637969 -10.006621,-10.47997 -3.76191,-8.65563 3.434963,-4.64052 z m -49.257379,49.42225 -4.439939,3.69058 -11.090127,-4.09489 -0.976151,-5.69037 z m -16.506217,-6.09468 -5.473597,-1.83659 -4.797019,-23.68069 4.327334,-3.822 z m 93.539503,-49.57616 4.16104,4.00238 -2.8373,11.47644 -5.54668,1.60238 z m -9.3163,73.05015 -1.21704,5.64378 -23.001068,7.39851 -4.279129,-3.87588 z m -77.333417,-64.85125 5.768616,-0.23739 10.784649,17.02231 -2.678708,5.11447 z m 12.178638,138.44355 -1.364254,-5.23448 21.632914,-14.75867 z m 47.215499,-10.80552 7.165946,-12.59415 7.211174,-6.08852 5.43132,1.95808 z m -3.725127,-81.25833 13.8487,-4.26343 9.424187,0.50616 2.61444,5.14763 z m -48.719425,25.38833 1.217042,-5.64377 21.491851,-6.91306 5.788349,3.39041 z m 6.924972,-49.86864 2.592817,-4.74739 25.869239,4.07237 z m -4.945468,112.5959 5.158112,2.59368 1.161769,20.11761 -4.825253,3.17022 z M 20.652425,285.12114 14.908374,284.53872 5,262.50213 8.376417,257.81885 z m 55.857108,-84.06027 0.876888,5.70653 -7.361829,5.90553 -13.737261,4.60985 z m -68.133116,56.75798 -2.524392,-5.19238 6.62311,-9.7925 5.758926,0.40999 z m 107.127193,-4.52717 2.9805,4.9447 -11.68426,21.14865 -5.77248,0.10884 z m -77.40654,34.12833 -3.515259,4.57998 -11.720633,-1.54455 -2.208753,-5.3343 z"
       class="sticker" />
    <path
       style="fill:none;stroke:#000000;stroke-width:0.2;stroke-linecap:butt;stroke-linejoin:bevel;stroke-opacity:1;stroke-dasharray:0.5, 1;stroke-dashoffset:0"
       inkscape:connector-curvature="0"
       id="path2994"
       d="m 101.02737,279.49387 14.47624,-26.20219 M 76.509533,201.06087 63.12018,189.64482 m 0,0 -28.497242,9.16642 M 83.342363,173.42291 70.009966,148.26758 M 36.602442,261.5385 18.234061,243.24396 m -3.393776,-104.16277 5.943282,29.33928 m 66.283923,86.26077 -3.614598,25.67143 m -62.669325,-111.9322 16.506217,6.09468 m 78.213826,78.77653 -8.62768,-15.33503 m 2.35376,-63.14338 -25.887327,-1.39036 M 76.213595,101.31678 86.547163,125.0929 M 37.289784,174.51515 41.54791,148.9426 M 114.32307,118.84431 93.380039,97.454931 M 60.120651,245.49361 39.851991,265.48676 m -21.61793,-22.2428 -9.857644,14.57489 m 78.691073,-3.13761 -26.946839,-9.18763 m -39.468226,39.62753 17.444645,2.29887 m 18.190261,-70.13723 3.83332,28.21083 M 70.009966,148.26758 41.54791,148.9426 M 86.547163,125.0929 70.009966,148.26758 M 38.09707,287.42001 36.602442,261.5385 M 41.54791,148.9426 27.673353,127.04321 M 8.376417,257.81885 20.652425,285.12114 m 9.747573,-69.22871 25.887333,1.39035 M 110.10013,135.92551 86.547163,125.0929 m 23.552967,10.83261 4.22294,-17.0812 m -7.44714,119.11234 -19.80844,16.72459 m -10.557957,-53.62037 28.497237,-9.16641 m -48.719439,25.38832 20.222202,-16.22191 m 6.83283,-27.63796 -20.222183,16.22191"
       class="convex" />
    <path
       style="fill:none;stroke:#000000;stroke-width:0.30000001;stroke-linecap:butt;stroke-linejoin:bevel;stroke-opacity:1;stroke-dasharray:none;stroke-dashoffset:0"
       inkscape:connector-curvature="0"
       id="path2996"
       d="m 30.399998,215.89243 4.22294,-17.08119 1.217042,-5.64377 21.491851,-6.91306 5.788349,3.39041 -25.830396,-15.12967 -4.439939,3.69058 -11.090127,-4.09489 -0.976151,-5.69037 -5.473597,-1.83659 -4.797019,-23.68069 4.327334,-3.822 12.833068,-12.03798 5.768616,-0.23739 10.784649,17.02231 -2.678708,5.11447 2.592817,-4.74739 25.869239,4.07237 -28.123717,-4.42732 -0.844226,-25.91088 27.601976,-11.5865 17.903164,18.75002 -10.006621,-10.47997 -3.76191,-8.65563 3.434963,-4.64052 17.166444,-3.861849 5.592227,-1.435414 16.903814,17.264083 -1.55301,5.56071 4.16104,4.00238 -2.8373,11.47644 -5.54668,1.60238 -1.98069,29.8696 -24.777077,7.6278 13.8487,-4.26343 9.424187,0.50616 2.61444,5.14763 -4.22292,17.08119 -1.21704,5.64378 -23.001068,7.39851 -4.279129,-3.87588 0.876888,5.70653 -7.361829,5.90553 -13.737261,4.60985 24.577729,-8.2476 19.02318,23.11352 -12.82075,22.53254 7.165946,-12.59415 7.211174,-6.08852 5.43132,1.95808 5.77315,0.0642 5.79672,10.30323 -2.94219,4.96758 2.9805,4.9447 -11.68426,21.14865 -5.77248,0.10884 -17.574478,0.8588 -29.180794,6.67817 -14.420107,-21.54408 -1.364254,-5.23448 21.632914,-14.75867 -23.518209,16.04489 5.158112,2.59368 1.161769,20.11761 -4.825253,3.17022 -3.515259,4.57998 -11.720633,-1.54455 -2.208753,-5.3343 L 14.908374,284.5387 5,262.50213 l 3.376417,-4.68328 -2.524392,-5.19238 6.62311,-9.7925 5.758926,0.40999 z"
       class="outer" />
  </g>
</svg>
