<?xml version="1.0" encoding="UTF-8" standalone="no"?>
<svg
   xmlns:dc="http://purl.org/dc/elements/1.1/"
   xmlns:cc="http://creativecommons.org/ns#"
   xmlns:rdf="http://www.w3.org/1999/02/22-rdf-syntax-ns#"
   xmlns:svg="http://www.w3.org/2000/svg"
   xmlns="http://www.w3.org/2000/svg"
   xmlns:sodipodi="http://sodipodi.sourceforge.net/DTD/sodipodi-0.dtd"
   xmlns:inkscape="http://www.inkscape.org/namespaces/inkscape"
   version="1.1"
   width="491.63046"
   height="911.24677"
   viewBox="0 0 138.74904 257.17409"
   id="svg2"
   inkscape:version="0.48.5 r10040"
   sodipodi:docname="piece 1-unique_page1.svg">
  <metadata
     id="metadata126">
    <rdf:RDF>
      <cc:Work
         rdf:about="">
        <dc:format>image/svg+xml</dc:format>
        <dc:type
           rdf:resource="http://purl.org/dc/dcmitype/StillImage" />
      </cc:Work>
    </rdf:RDF>
  </metadata>
  <defs
     id="defs124" />
  <sodipodi:namedview
     pagecolor="#ffffff"
     bordercolor="#666666"
     borderopacity="1"
     objecttolerance="10"
     gridtolerance="10"
     guidetolerance="10"
     inkscape:pageopacity="0"
     inkscape:pageshadow="2"
     inkscape:window-width="640"
     inkscape:window-height="493"
     id="namedview122"
     showgrid="false"
     fit-margin-top="0"
     fit-margin-left="0"
     fit-margin-right="0"
     fit-margin-bottom="0"
     inkscape:zoom="0.22425739"
     inkscape:cx="354.8622"
     inkscape:cy="508.99602"
     inkscape:window-x="0"
     inkscape:window-y="34"
     inkscape:window-maximized="0"
     inkscape:current-layer="svg2" />
  <style
     type="text/css"
     id="style4">
    path {
        fill: none;
        stroke-linecap: butt;
        stroke-linejoin: bevel;
        stroke-dasharray: none;
    }
    path.outer {
        stroke: #000000;
        stroke-dasharray: none;
        stroke-dashoffset: 0;
        stroke-width: 0.3;
        stroke-opacity: 1.0;
    }
    path.convex {
        stroke: #000000;
        stroke-dasharray: 0.50,1.00;
        stroke-dashoffset:0;
        stroke-width:0.2;
        stroke-opacity: 1.0
    }
    path.concave {
        stroke: #000000;
        stroke-dasharray: 1.00,0.50,0.20,0.50;
        stroke-dashoffset: 0;
        stroke-width: 0.2;
        stroke-opacity: 1.0
    }
    path.freestyle {
        stroke: #000000;
        stroke-dasharray: none;
        stroke-dashoffset: 0;
        stroke-width: 0.2;
        stroke-opacity: 1.0
    }
    path.outer_background {
        stroke: #ffffff;
        stroke-opacity: 1.0;
        stroke-width: 0.5
    }
    path.inner_background {
        stroke: #ffffff;
        stroke-opacity: 1.0;
        stroke-width: 0.2
    }
    path.sticker {
        fill: #e5e5e5;
        stroke: none;
        fill-opacity: 1.0;
    }
    path.arrow {
        fill: #000;
    }
    text {
        font-style: normal;
        fill: #000000;
        fill-opacity: 1.0;
        stroke: none;
    }
    text, tspan {
        text-anchor:middle;
    }
    </style>
  <g
     id="g6"
     transform="translate(-4.8500014,-34.975907)">
    <path
       class="sticker"
       d="m 49.889443,86.342107 4.407178,-7.275805 18.281799,-7.683277 4.598491,3.491014 z M 41.032431,188.88001 37.079864,193.0884 13.883938,187.64591 12.21565,182.11869 z M 18.598196,50.085018 19.322262,44.357116 41.287181,35.125907 45.885672,38.61698 z M 134.2855,210.76007 l -0.72406,5.72793 -18.28182,7.68327 -8.28159,-1.94314 z m -46.626531,-10.94003 -7.842101,3.29579 -19.306396,-4.52989 -1.668289,-5.52722 z m 15.335251,-25.31703 3.95257,-4.2084 23.19595,5.44249 1.66827,5.52721 z m -93.253054,-21.88006 0.724061,-5.72792 21.964925,-9.23118 4.598493,3.491 z m 81.921596,94.92221 5.557827,6.43983 1.657829,19.76129 -4.741169,3.29464 z m -35.295055,-83.98218 0.711136,8.47672 -10.274179,16.96168 -5.772233,-0.12137 z m 71.439523,-30.02377 -0.72406,5.72792 -21.96493,9.23116 -4.59849,-3.49101 z m -6.47826,-77.220857 5.67132,-1.081407 15.56689,18.037274 -1.89917,5.452216 z m 19.33904,22.408083 2.78103,5.059585 -12.34409,20.378829 -5.7722,-0.12139 z M 45.885672,38.61698 l 5.671322,-1.081407 15.566871,18.037305 -1.899146,5.4522 z m -8.857027,102.53787 -2.781004,-5.05955 10.27418,-16.96168 7.842093,-3.29578 z m 29.821135,147.35412 -5.671318,1.0814 -15.566886,-18.03727 1.899138,-5.45221 z M 96.515966,97.282137 90.95816,90.842317 89.300332,71.081023 94.041501,67.786391 z m -2.378717,179.758783 -0.724055,5.72792 -21.964915,9.23115 -4.598499,-3.49102 z M 12.21565,182.11869 6.991823,179.66004 5,155.91758 9.741166,152.62295 z m 88.3041,-37.11141 -5.671321,1.08139 -12.956597,-15.01276 -0.711136,-8.47673 z"
       id="path8"
       inkscape:connector-curvature="0"
       style="fill:#e5e5e5;fill-opacity:1;stroke:none" />
    <path
       class="convex"
       d="m 37.028645,141.15485 -27.287479,11.4681 m 90.778584,-7.61567 27.28748,-11.46807 m -20.8092,88.68892 -19.339061,-22.40809 M 41.032431,188.88001 56.367707,163.56298 m 24.812989,-40.9638 -28.816782,-6.76134 m 31.291262,36.25709 -27.287469,11.46805 M 9.741166,152.62295 12.21565,182.11869 M 94.041501,67.786391 96.515966,97.282137 M 91.662762,247.54516 62.845976,240.78385 M 12.21565,182.11869 41.032431,188.88001 M 45.885672,38.61698 18.598196,50.085018 m 18.430449,91.069832 19.339062,22.40813 M 49.889443,86.342107 21.072664,79.580779 m 37.769519,113.477941 28.816786,6.76132 M 66.84978,288.50897 94.137249,277.04092 M 65.224719,61.025078 45.885672,38.61698 M 94.137249,277.04092 91.662762,247.54516 M 77.176911,74.874039 49.889443,86.342107 m 2.474471,29.495733 -15.335269,25.31701 m 94.782365,40.10946 -28.81679,-6.7613 m 0,0 -15.335251,25.31703 M 47.510714,266.10089 66.84978,288.50897 M 52.363914,115.83784 49.889443,86.342107 M 125.33275,104.04346 140.66801,78.726436 M 81.180696,122.59918 96.515966,97.282137 M 140.66801,78.726436 121.32897,56.318353 M 106.99803,222.22813 134.2855,210.76007 m -53.104804,-88.16089 19.339054,22.4081 m 24.813,-40.96382 -28.816784,-6.761323 M 91.662762,247.54516 106.99803,222.22813"
       id="path10"
       inkscape:connector-curvature="0"
       style="fill:none;stroke:#000000;stroke-width:0.2;stroke-linecap:butt;stroke-linejoin:bevel;stroke-opacity:1;stroke-dasharray:0.5, 1;stroke-dashoffset:0" />
    <path
       class="outer"
       d="m 106.94679,170.29461 23.19595,5.44249 1.66827,5.52721 2.47449,29.49576 -0.72406,5.72793 -18.28182,7.68327 -8.28159,-1.94314 28.81676,6.76131 2.47447,29.49576 -27.28744,11.46807 -19.339058,-22.40811 5.557827,6.43983 1.657829,19.76129 -4.741169,3.29464 -0.724055,5.72792 -21.964915,9.23115 -4.598499,-3.49102 -5.671318,1.0814 -15.566886,-18.03727 1.899138,-5.45221 15.335262,-25.31704 -2.474483,-29.49574 27.287476,-11.46807 -7.842101,3.29579 -19.306396,-4.52989 -1.668289,-5.52722 -2.474476,-29.49574 0.711136,8.47672 -10.274179,16.96168 -5.772233,-0.12137 -3.952567,4.20839 L 13.883938,187.64591 12.21565,182.11869 6.991823,179.66004 5,155.91758 l 4.741166,-3.29463 0.724061,-5.72792 21.964925,-9.23118 4.598493,3.491 -2.781004,-5.05955 10.27418,-16.96168 7.842093,-3.29578 -27.287466,11.46805 -19.339056,-22.40808 15.335272,-25.317031 -2.474468,-29.495761 0.724066,-5.727902 21.964919,-9.231209 4.598491,3.491073 5.671322,-1.081407 15.566871,18.037305 -1.899146,5.4522 -15.335276,25.317029 4.407178,-7.275805 18.281799,-7.683277 4.598491,3.491014 19.339055,22.408098 -5.557806,-6.43982 -1.657828,-19.761294 4.741169,-3.294632 27.287469,-11.468038 5.67132,-1.081407 15.56689,18.037274 -1.89917,5.452216 2.78103,5.059585 -12.34409,20.378829 -5.7722,-0.12139 2.47448,29.49575 -0.72406,5.72792 -21.96493,9.23116 -4.59849,-3.49101 -5.671321,1.08139 -12.956597,-15.01276 -0.711136,-8.47673 2.47448,29.49575 19.339044,22.40808 z"
       id="path12"
       inkscape:connector-curvature="0"
       style="fill:none;stroke:#000000;stroke-width:0.30000001;stroke-linecap:butt;stroke-linejoin:bevel;stroke-opacity:1;stroke-dasharray:none;stroke-dashoffset:0" />
    <g
       id="g14">
      <path
         transform="matrix(0.417996,4.982497,-4.982497,0.417996,61.608733,226.03598)"
         class="arrow"
         d="M 0,0 1,1 0,0.25 -1,1 z"
         id="path16"
         inkscape:connector-curvature="0"
         style="fill:#000000;stroke-linecap:butt;stroke-linejoin:bevel;stroke-dasharray:none" />
      <text
         transform="translate(57.124485,228.41218)"
         style="font-size:5px;font-style:normal;text-anchor:middle;fill:#000000;fill-opacity:1;stroke:none"
         id="text18">
        <tspan
           id="tspan20"
           style="text-anchor:middle">1</tspan>
      </text>
    </g>
    <text
       transform="matrix(-0.973561,-0.228428,0.228428,-0.973561,26.418456,186.37556)"
       style="font-size:4.5px;font-style:normal;text-anchor:middle;fill:#000000;fill-opacity:1;stroke:none"
       id="text22">
      <tspan
         id="tspan24"
         style="text-anchor:middle">1</tspan>
    </text>
    <g
       id="g26">
      <path
         transform="matrix(4.609468,-1.937216,1.937216,4.609468,124.64555,264.21923)"
         class="arrow"
         d="M 0,0 1,1 0,0.25 -1,1 z"
         id="path28"
         inkscape:connector-curvature="0"
         style="fill:#000000;stroke-linecap:butt;stroke-linejoin:bevel;stroke-dasharray:none" />
      <text
         transform="translate(126.38905,270.36775)"
         style="font-size:5px;font-style:normal;text-anchor:middle;fill:#000000;fill-opacity:1;stroke:none"
         id="text30">
        <tspan
           id="tspan32"
           style="text-anchor:middle">2</tspan>
      </text>
    </g>
    <text
       transform="matrix(0.921894,-0.387442,0.387442,0.921894,31.893236,43.521295)"
       style="font-size:4.5px;font-style:normal;text-anchor:middle;fill:#000000;fill-opacity:1;stroke:none"
       id="text34">
      <tspan
         id="tspan36"
         style="text-anchor:middle">2</tspan>
    </text>
    <g
       id="g38">
      <path
         transform="matrix(3.266804,3.785233,-3.785233,3.266804,15.40692,116.10184)"
         class="arrow"
         d="M 0,0 1,1 0,0.25 -1,1 z"
         id="path40"
         inkscape:connector-curvature="0"
         style="fill:#000000;stroke-linecap:butt;stroke-linejoin:bevel;stroke-dasharray:none" />
      <text
         transform="translate(12.00021,121.04196)"
         style="font-size:5px;font-style:normal;text-anchor:middle;fill:#000000;fill-opacity:1;stroke:none"
         id="text42">
        <tspan
           id="tspan44"
           style="text-anchor:middle">3</tspan>
      </text>
    </g>
    <text
       transform="matrix(0.921894,-0.387443,0.387443,0.921894,23.036207,146.05921)"
       style="font-size:4.5px;font-style:normal;text-anchor:middle;fill:#000000;fill-opacity:1;stroke:none"
       id="text46">
      <tspan
         id="tspan48"
         style="text-anchor:middle">3</tspan>
    </text>
    <g
       id="g50">
      <path
         transform="matrix(-0.417994,-4.982497,4.982497,-0.417994,137.05203,243.73732)"
         class="arrow"
         d="M 0,0 1,1 0,0.25 -1,1 z"
         id="path52"
         inkscape:connector-curvature="0"
         style="fill:#000000;stroke-linecap:butt;stroke-linejoin:bevel;stroke-dasharray:none" />
      <text
         transform="translate(141.53628,245.36112)"
         style="font-size:5px;font-style:normal;text-anchor:middle;fill:#000000;fill-opacity:1;stroke:none"
         id="text54">
        <tspan
           id="tspan56"
           style="text-anchor:middle">4</tspan>
      </text>
    </g>
    <text
       transform="matrix(0.653361,0.757047,-0.757047,0.653361,131.67984,66.934387)"
       style="font-size:4.5px;font-style:normal;text-anchor:middle;fill:#000000;fill-opacity:1;stroke:none"
       id="text58">
      <tspan
         id="tspan60"
         style="text-anchor:middle">4</tspan>
    </text>
    <g
       id="g62">
      <path
         transform="matrix(-0.417997,-4.982497,4.982497,-0.417997,133.04827,196.01219)"
         class="arrow"
         d="M 0,0 1,1 0,0.25 -1,1 z"
         id="path64"
         inkscape:connector-curvature="0"
         style="fill:#000000;stroke-linecap:butt;stroke-linejoin:bevel;stroke-dasharray:none" />
      <text
         transform="translate(137.53252,197.636)"
         style="font-size:5px;font-style:normal;text-anchor:middle;fill:#000000;fill-opacity:1;stroke:none"
         id="text66">
        <tspan
           id="tspan68"
           style="text-anchor:middle">5</tspan>
      </text>
    </g>
    <text
       transform="matrix(-0.518095,0.855323,-0.855323,-0.518095,133.77017,91.85126)"
       style="font-size:4.5px;font-style:normal;text-anchor:middle;fill:#000000;fill-opacity:1;stroke:none"
       id="text70">
      <tspan
         id="tspan72"
         style="text-anchor:middle">5</tspan>
    </text>
    <g
       id="g74">
      <path
         transform="matrix(-4.60947,1.93721,-1.93721,-4.60947,107.68524,62.052379)"
         class="arrow"
         d="M 0,0 1,1 0,0.25 -1,1 z"
         id="path76"
         inkscape:connector-curvature="0"
         style="fill:#000000;stroke-linecap:butt;stroke-linejoin:bevel;stroke-dasharray:none" />
      <text
         transform="translate(105.94175,59.903855)"
         style="font-size:5px;font-style:normal;text-anchor:middle;fill:#000000;fill-opacity:1;stroke:none"
         id="text78">
        <tspan
           id="tspan80"
           style="text-anchor:middle">6.</tspan>
      </text>
    </g>
    <text
       transform="matrix(0.65336,0.757047,-0.757047,0.65336,56.236533,49.233)"
       style="font-size:4.5px;font-style:normal;text-anchor:middle;fill:#000000;fill-opacity:1;stroke:none"
       id="text82">
      <tspan
         id="tspan84"
         style="text-anchor:middle">6.</tspan>
    </text>
    <g
       id="g86">
      <path
         transform="matrix(-2.590473,4.276617,-4.276617,-2.590473,13.405028,92.239286)"
         class="arrow"
         d="M 0,0 1,1 0,0.25 -1,1 z"
         id="path88"
         inkscape:connector-curvature="0"
         style="fill:#000000;stroke-linecap:butt;stroke-linejoin:bevel;stroke-dasharray:none" />
      <text
         transform="translate(9.556073,91.907869)"
         style="font-size:5px;font-style:normal;text-anchor:middle;fill:#000000;fill-opacity:1;stroke:none"
         id="text90">
        <tspan
           id="tspan92"
           style="text-anchor:middle">7</tspan>
      </text>
    </g>
    <text
       transform="matrix(-0.653361,-0.757046,0.757046,-0.653361,56.498905,277.89295)"
       style="font-size:4.5px;font-style:normal;text-anchor:middle;fill:#000000;fill-opacity:1;stroke:none"
       id="text94">
      <tspan
         id="tspan96"
         style="text-anchor:middle">7</tspan>
    </text>
    <g
       id="g98">
      <path
         transform="matrix(0.417993,4.982497,-4.982497,0.417993,19.835432,64.832906)"
         class="arrow"
         d="M 0,0 1,1 0,0.25 -1,1 z"
         id="path100"
         inkscape:connector-curvature="0"
         style="fill:#000000;stroke-linecap:butt;stroke-linejoin:bevel;stroke-dasharray:none" />
      <text
         transform="translate(15.351185,67.209105)"
         style="font-size:5px;font-style:normal;text-anchor:middle;fill:#000000;fill-opacity:1;stroke:none"
         id="text102">
        <tspan
           id="tspan104"
           style="text-anchor:middle">8</tspan>
      </text>
    </g>
    <text
       transform="matrix(-0.921894,0.387443,-0.387443,-0.921894,80.842224,283.60465)"
       style="font-size:4.5px;font-style:normal;text-anchor:middle;fill:#000000;fill-opacity:1;stroke:none"
       id="text106">
      <tspan
         id="tspan108"
         style="text-anchor:middle">8</tspan>
    </text>
    <g
       id="g110">
      <path
         transform="matrix(-2.590472,4.276618,-4.276618,-2.590472,55.178349,253.44237)"
         class="arrow"
         d="M 0,0 1,1 0,0.25 -1,1 z"
         id="path112"
         inkscape:connector-curvature="0"
         style="fill:#000000;stroke-linecap:butt;stroke-linejoin:bevel;stroke-dasharray:none" />
      <text
         transform="translate(51.329394,253.11095)"
         style="font-size:5px;font-style:normal;text-anchor:middle;fill:#000000;fill-opacity:1;stroke:none"
         id="text114">
        <tspan
           id="tspan116"
           style="text-anchor:middle">9.</tspan>
      </text>
    </g>
    <text
       transform="matrix(-0.083599,-0.996499,0.996499,-0.083599,10.081558,167.44606)"
       style="font-size:4.5px;font-style:normal;text-anchor:middle;fill:#000000;fill-opacity:1;stroke:none"
       id="text118">
      <tspan
         id="tspan120"
         style="text-anchor:middle">9.</tspan>
    </text>
  </g>
</svg>
